<svg id="image" xmlns="http://www.w3.org/2000/svg" viewBox="0 0 1217 202"><defs><style>.cls-1{fill:#333;}</style></defs><title>Artboard 1</title><path class="cls-1" d="M793.14,91.75c-8.9,3.08-9.35,13.11-9.19,21.68a26.16,26.16,0,0,0,.47,3.14c.31,2.25.72,4.47,3.1,5.51s3.81-1,5.61-2c7.72-4.39,13.84-10.58,19.77-17a5,5,0,0,0,1.38-3.91,30.24,30.24,0,0,1,3.21-14.84c3-6,9.39-8.34,15.3-10.78,4.29-1.77,8.07-.26,11.59,2.32a6.69,6.69,0,0,1,.74,10.3,29.64,29.64,0,0,1-9.44,6.52c-5.69,2.41-5.52,7.14-5.72,11.65-.15,3.42.63,6.9,1.2,10.32.75,4.51,3.84,6.24,8,4.32a133.2,133.2,0,0,0,20.5-11.61c2-1.38,2.41-3.2,2.29-5.5a125.58,125.58,0,0,1,2.3-33.13c3.26-15.12,8.35-29.54,20.08-40.46a34.28,34.28,0,0,1,17.22-8.37c8.65-1.58,16.9,6.18,18.5,16.8,1.19,8-1,15.52-4.62,22.54-6.83,13.09-16.23,23.85-29.27,31.18-2.88,1.62-4.23,4-4.59,7.68a93.24,93.24,0,0,0,.33,21.9c.32,2.32.86,4.57,3.12,5.47s4-.59,5.64-2c8.31-7.28,15.9-15.25,21.45-24.8,3-5.17,4.79-11.06,7.15-16.62,2.09-4.9,5.42-8.36,10.91-9.3,1.14-.19,2.33-.7,3.22.42a3.4,3.4,0,0,1,.26,3.84,89.59,89.59,0,0,0-8.11,21.59c-1.55,6.6-2.55,13.23-1.84,20,.07.71.33,1.75.81,2,.85.41,1.22-.69,1.71-1.22,9.23-10.07,17.16-21.26,26.82-31a5.19,5.19,0,0,0,1.24-3.16c.43-8,7.22-10.48,12.3-14.42.88-.67,2.58-1,3.19.11a6.29,6.29,0,0,1,.58,5.49c-4.53,12-5.78,24.7-8,37.2a3.82,3.82,0,0,0,.09,1.62c1,.1.79-.88,1.08-1.4,6.81-12.12,12-25.18,21.22-35.87,2.12-2.47,4.51-5,8.36-3.78,3.44,1.08,6.24,3,6.18,7a54,54,0,0,1-.88,9.77,93.86,93.86,0,0,0-1.68,19.28c0,.72-.46,1.78.4,2.07.5.17,1.4-.42,1.95-.87,5.49-4.53,10.79-9.18,14.84-15.19,2.92-4.35,3.57-9.53,6-14,7.35-13.31,23.36-17.92,36-9.78.38.25.6.73.95,1.06,1.16,1.09,2.34,2.17,3.51,3.25.43-1.54-.49-2.84-.76-4.26a2.32,2.32,0,0,1,.09-1.41c2.27-4.27,4.83-8.38,8.43-11.63,2.62-2.36,4.64-.86,5.4,1.9a215.22,215.22,0,0,1,5.76,29.77c1.3,10.3,2.8,20.61,2.07,31.06-.1,1.39.24,2.32,2.36,1.88,6.86-1.44,13.92-2,20.72-3.39,11.41-2.23,22.94-3.59,34.33-5.88,14.35-2.89,29.09-4,43.31-7.37,12.38-2.93,24.26-8,31.08-20.07,2.89-5.11.74-15-7.37-16.5a32.82,32.82,0,0,0-9.48-.75c-.42.05-1.21,0-1.24-.17-.18-.84.57-.86,1.09-.9,6-.46,11.95-1,17.26,2.82,3.55,2.57,5.15,10.77,2.95,15.21-4,8.12-11,12.89-18.7,17-9.38,5-19.74,6.36-29.93,8.29-13.58,2.56-27.2,4.87-40.83,7.15-7.7,1.29-15.47,2.15-23.17,3.47-6.84,1.17-13.61,2.72-20.43,4-2.23.44-2.18,2-2.28,3.72-1,17.59-4.38,34.62-13.5,50-4.89,8.24-11.24,15.06-20.87,18-7.67,2.38-15.36,4.43-23.23,1.21-8.19-3.35-12.49-9.88-13.17-18.43-.93-11.77,4.58-21.14,12.19-29.52,11.08-12.2,25-19.4,40.94-22.72,2.71-.56,4.11-1.38,3.83-4.55-.52-5.66-.58-11.36-.88-17.05,0-.83-.18-2.11-.69-2.38-1-.52-1.73.68-2.29,1.32a41,41,0,0,1-17.3,11.75c-9.1,3.28-18,2.69-26.36-2.53-4.89-3-4.65-8-5.35-12.74-.09-.6.45-1.49-.45-1.72-.25-.06-.74.77-1.11,1.2a109.4,109.4,0,0,1-16.5,15.26c-3.11,2.42-6.65,1.13-7.52-2.68a16.93,16.93,0,0,1-.46-4.59c.52-9.12-.25-18.31,1.56-27.36a9.83,9.83,0,0,0,.09-2.6c-.08-.91.46-2.16-.58-2.59-.38-.16-1.37.85-1.93,1.46C980.87,86.58,976,94.74,972,103.44c-2.44,5.24-4.91,10.46-7.5,15.62-1.81,3.62-4.86,5.51-9,4.94-3.78-.53-3.9-3.7-4.68-6.7-2-7.88.92-15.26,1.67-22.86.07-.65.27-1.78,0-1.9-.93-.46-1.29.61-1.7,1.12-7.06,8.8-14.16,17.56-21.05,26.49-4.39,5.7-7.32,6.9-12.89,4.71a3.83,3.83,0,0,1-2.51-2.8c-2-6.25-1.49-12.58-.9-18.93,0-.58.79-1.17.06-1.78a13.82,13.82,0,0,0-1.25,1.52,103,103,0,0,1-20.85,24.25c-4.75,4.08-10.91,5.25-16.95,5.26-2.54,0-4.45-2.84-5.62-5.39a71.25,71.25,0,0,1-5-13.53c-.58-2.49-.45-4.69-4.78-2-8.65,5.26-17.23,11-27.34,13.6-10.39,2.69-14.17-.83-16.75-11.77-.56-2.37-.77-4.83-1.14-7.24-1.69,1.69-3.29,3.5-5.09,5.07C803,116.13,797.17,121.44,791,126c-4.86,3.59-10.59,3.23-15.78.66a11,11,0,0,1-6.2-11.23,88.07,88.07,0,0,1,.73-8.94c.47-2.59-.59-1.88-2-1.32-6.85,2.85-13.53,6.08-20.56,8.55-3.88,1.37-7.89-.32-11.63,1.22-.49.2-1,.31-1.52.46.37.4.73.84,1.13,1.22,3.88,3.7,8.19,6.92,11.23,11.54,8.08,12.29,9.73,25.3,4.66,39.05-3.58,9.69-11.7,12-20.83,12.28-11.26.32-15.34-8.53-20.61-15.81-8.22-11.36-8.08-24.83-9.32-37.94a53.75,53.75,0,0,1,.17-13c.35-2.34-.7-2.77-2.58-2.35-15.61,3.43-31.3,1.1-47,.66-17.14-.48-41.54-1.57-51.41-.62C573,113,556.3,122.25,556.3,122.25c3.64-4,8.94-4.88,13.63-6.54a145,145,0,0,1,43.19-8c16.07-.6,32,1.52,48,1.7,9.71.1,19.42.58,29.15.14,3.16-.15,6-1.58,9-2,1.77-.28,1.49-1.8,1.47-3-.15-9.6,1.77-19,3.19-28.4,1.83-12.2,7.27-23,13.54-33.48a193.3,193.3,0,0,1,12.83-18.83c4.9-6.38,10.45-11.3,19.16-10.52,7.59.68,15.41.16,21.95,5.62a19.66,19.66,0,0,1,5.88,8.39c4.39,11.73,3.36,23.29-1.71,34.62-7.73,17.26-21.93,27.3-38.58,34.58-4.48,2-8.64,4.69-13.53,5.74A2.8,2.8,0,0,0,721,105a126.33,126.33,0,0,0,3,42.5,133.85,133.85,0,0,0,5.42,17.33c1.78,4.56,6,7.16,10.39,8.53,2.06.63,4.61-1.38,6.13-3.56,6.78-9.66,6.66-28.13-.16-38a60.36,60.36,0,0,0-19-17.85,4.93,4.93,0,0,1-.73-.45c-1.23-1-3.49-2.21-2.6-3.57,1.06-1.62,2.62.51,3.9,1.15a10.31,10.31,0,0,0,4.07,1.22c10.77.79,20.42-2.49,30.28-6.57,6.8-2.81,10.33-6.78,11.87-13.5,2.26-9.82,8.33-15.23,18.62-15.69,3.47-.15,7.35-1.84,9.58,2.23C801.75,78.76,804,88,793.14,91.75ZM776.92,42.42a69.58,69.58,0,0,0-1-7.94,36.83,36.83,0,0,0-2.69-7c-4.08-8.32-11.13-11.27-18.5-4C749.82,28.2,747,34.26,743.73,40c-10.21,17.77-19,36.1-22,56.7-.32,2.23-.13,2.75,2.16,1.93A121.36,121.36,0,0,0,755.4,82.51C769.21,72.4,775.93,58.78,776.92,42.42Zm255.89,155.25c7.4.29,14.72-4.44,18.12-11.14a149.09,149.09,0,0,0,12-31.86c1.65-6.74,3.6-13.39,3.63-20.41,0-1.26.14-2.29-1.8-1.87-8.68,1.91-17.21,4.12-24.83,9-11.83,7.58-22.13,16.3-25.82,30.78C1010.49,186.24,1018.31,197.08,1032.81,197.67Zm-2.59-95.07a33,33,0,0,0,.62,5.79c1.6,5.69,3.86,9.75,10.81,8.18a37.15,37.15,0,0,0,18.61-10.2c2.08-2.11,5.4-3.4,4.87-7.28-.76-5.53-1.46-11.06-2.3-16.58-.2-1.37-.13-3.33-1.65-3.75-2.76-.78-4.54-2.85-6.75-4.31-6.27-4.15-11.4-3.72-15.27,2C1033.78,84.27,1031.46,93.29,1030.22,102.6Zm-114-60c0-4.1-.16-8.24-2.22-11.9-1.81-3.21-4.13-6.34-8.08-6.72-3.09-.3-4.09,2.76-5.47,4.89-5.21,8-8.27,16.92-10.3,26.18-2.28,10.43-5.72,20.61-6.8,31.29a11.25,11.25,0,0,0,.11,1.91,9.89,9.89,0,0,0,1.83-.64,63.62,63.62,0,0,0,20.41-18.84C911.21,60.81,916.43,52.81,916.25,42.59ZM832.16,90c0,.86-.43,2.29.86,1.45,3.67-2.38,7.91-4.31,10-8.39,1.5-2.9-.95-4.27-3.13-5.47s-3.4-.8-4.45,1.61C833.92,82.79,833.29,86.57,832.16,90ZM797,87c1.12-.8,2.79-3.9,2.68-4.72-.11-1.64-.31-2.57-1.27-3.1a3.1,3.1,0,0,0-3.52.26C791.31,82,787.59,84.23,787,88c-.3.68,0,3,1,3S795.88,87.8,797,87Z"/><path class="cls-1" d="M169.81,152.11a23.59,23.59,0,0,0,7.29,8.44,7.07,7.07,0,0,0,7.92.18c8.65-4.94,10.67-12.87,10-22.88,1.27-9.5-2.86-18.59-7.73-27.12-2.93-5.14-7.05-10-13.27-12-.62-.2-1.87.06-1.6-1.13s1.41-1,2.21-.82a60.87,60.87,0,0,0,13.14,1.27c6.23,0,11.87-2.25,17.58-4.16,4.66-1.56,9.15-3.57,13.75-5.3a3.72,3.72,0,0,0,2.77-3.26,184.32,184.32,0,0,1,8-33.6c5-15.05,13-28.08,27.27-36.21a17.78,17.78,0,0,1,10.53-2.44c3.81.36,5,3.64,6,6.62,3.34,10.13.11,19.32-4.41,28.26a59.19,59.19,0,0,1-15.23,18.88c-5.56,4.66-10.9,9.71-16.34,14.59-2.13,1.92-1.23,5.13-1.71,7.74-.95,5.14-1.3,10.33.14,15.46,1.06,3.82,2.69,4.33,5.68,1.79,7.54-6.4,15-12.94,22.61-19.21,3.21-2.64,4.45-6.15,5.67-9.79,2.28-6.76,6.5-12.24,11.73-16.88,3.34-3,9.66-3,13.22-.4,1.4,1,1.9.63,2.6-.68,3.61-6.82,11.54-7,15.77-.46a30.08,30.08,0,0,1,4.84,12.27c.12.86.06,1.65,1.38,1.74,5.08.35,11.91-3.2,13.9-8,1.42-3.4,4.62-4.5,7.11-6.39C343,57,346,56.14,348.8,55.07c1.19-.45,2.67-1.31,3.76,0s.51,2.81-.22,4.07c-1.79,3.08-3.87,6-5.54,9.16-5.09,9.61-8.62,19.74-9.53,30.66a9.92,9.92,0,0,0,.39,2.43c1-.28,1.18-1.22,1.51-2a84.33,84.33,0,0,1,24-32.07c2.77-2.25,5.83-3.82,9.47-3.68A4.5,4.5,0,0,1,377,66.46c.89,2.22-.12,4.16-.92,6.12a1,1,0,0,1-.93.36c-.68-.35-.43-1-.19-1.5.75-1.64,1-3.26-.66-4.43s-3.57-.84-5.45.07c-9.11,4.43-14.49,12.48-20.09,20.34a64.65,64.65,0,0,0-8.63,16.94,9.52,9.52,0,0,1-1,2.08c-1.61,2.45-3.4,5.1-6.72,4.62-3.49-.51-4-3.81-4.62-6.61A54.33,54.33,0,0,1,329.5,74.9a7.74,7.74,0,0,0,.17-1.09,4.75,4.75,0,0,0-1.33.19,19,19,0,0,1-7.15,2.16c-1.87.08-1.8,1.5-1.83,3a42.58,42.58,0,0,1-5.57,20.59c-3.77,6.49-10,9.85-17.6,9.67-5.55-.14-11.19.06-16.56-1.85-6.15-2.19-13-8.48-12-18.08a8.11,8.11,0,0,0-.23-1.87c-.42.36-.84.71-1.25,1.08-7.54,6.84-14.77,14.06-22.72,20.38-4.46,3.56-9.67,6.8-16.13,5.7-4.4-.76-6.69-3.2-6.73-7.63,0-4.25-.34-8.5.45-12.72.48-2.59-.42-3.4-3-2.27a179.13,179.13,0,0,1-22.49,8.24c-3.74,1.09-7.67.52-11.52.49a12,12,0,0,0-1.33.13,12.3,12.3,0,0,0,.84,1c13.27,13.66,16.85,30.25,13.79,48.4-1.19,7.08-6.37,11.82-12.83,15.06a81,81,0,0,1-9.15,3.88c-5.72,2.06-10.73.9-15.51-4.62a41.5,41.5,0,0,1-8.16-15.15c-3.39-10.69-5.66-21.51-5.85-32.6-.16-8.93.85-17.89,1.6-26.81.22-2.59-.15-4-3-3.58C128,88.77,112.17,84,96.12,81.49c-17.19-2.72-34.48-5.92-51.92-2.56-12.93,2.5-25.59,6.67-34,17.42-11.18,14.25-7.06,31,9.76,39a9.6,9.6,0,0,0,6,.54c.94-.17,2.66-.54,2.64-.08C28.5,137,27,136.89,26,137.14c-9.73,2.64-19.5-4.82-23.16-12.08-5.15-10.24-3-20.09,2.94-29.13C9.37,90.48,15,87.15,20.7,84A71.37,71.37,0,0,1,55.8,75c10.68-.07,21.26,1.6,31.88,2.74,15.16,1.62,29.68,7.18,45.08,7a94.72,94.72,0,0,0,13-.67c4.4-.67,3.18-5.13,3.82-7.81a333.44,333.44,0,0,1,10.13-34.59,97.93,97.93,0,0,1,14.7-27.36A22.75,22.75,0,0,1,178,10a19.33,19.33,0,0,1,3-3,15.6,15.6,0,0,1,3.46-3.09c7.52-5.38,30-4.64,37,1.35a22.61,22.61,0,0,1,8,19.4c-1.21,17.87-8.83,32.23-23.81,42.72a113,113,0,0,1-31.95,15.21c-6.43,2-8.48,5.1-9,11.11-1.12,12.11-2.47,24.19-.67,36.34a72.33,72.33,0,0,0,1,9C166,145,169.81,152.11,169.81,152.11ZM226.28,24.89c-.43-6.62-2-13.07-8.25-17.24-2.46-1.64-5.17-3.42-8.31-1.87a89.47,89.47,0,0,0-8,4.65c-8.52,5.38-11.92,14.65-16.79,22.71-8.44,14-13.58,29.27-17.29,45.09-.58,2.46.12,2.88,2.43,2.32,9-2.19,17.31-6.08,25.36-10.37,8.56-4.57,16.89-9.71,21.77-18.78C221.68,43.15,226.42,35.05,226.28,24.89Zm56.47,66.59c.17,2.86-.08,6.31,2.43,8.66,5.52,5.17,18.23,6.89,24.54-.56,5-5.88,6.62-12.66,7.11-20,.12-1.78-.51-2.73-2.48-2.63-6.29.33-11.25-2.27-15.53-6.79-1.47-1.56-.62-5.28-3.13-4.8-1.76.34-2.89,3.4-4.51,5C285.43,76.16,282.92,83.18,282.75,91.48ZM272.42,28.63A15.28,15.28,0,0,0,271.08,21c-1.16-3-2.89-3.07-4.95-.85A99.33,99.33,0,0,0,255.89,34.1c-8.17,12.62-13.37,26.41-17.17,40.82a5.77,5.77,0,0,0-.05,1.32,13,13,0,0,0,1.2-.71c7.16-5.19,13.17-11.6,19.31-17.9C267.11,49.51,271,39.66,272.42,28.63Zm40.32,45.08c1.6-.11,3.49.61,3-1.77-1-5.1-2.44-10-6.89-13.45-2.6-2-5-2.48-7.48-.38-2.13,1.81-2.16,7.59-.35,9.68C304.22,71.48,308.44,73.07,312.74,73.71Z"/><path class="cls-1" d="M483.47,11.65c3.55.12,7.27,3.39,8.09,8.22,2.17,12.83-3.95,22.68-11,32.43a102.32,102.32,0,0,1-22,22.71,6.54,6.54,0,0,0-2.45,4.68c-1.19,8.46-3.8,16.81-1.58,25.49a25,25,0,0,0,.82,3.94c.68,1.53,1.28,3.45,3.28,3.72,2.23.31,4-1.1,5.18-2.68q9.45-12.54,18.62-25.28c2.24-3.08,4.18-5.87,1.64-10.29-3.23-5.6-1-12.78,3.7-15.6,4.11-2.47,8.43-.12,8.82,4.69a10.85,10.85,0,0,1-1,5.92c-1.82,3.45-.46,6.34.94,9.29,2.07,4.35,4.3,8.62,6.36,13,.46,1,.82,1.88,2,1.54,11.74-3.34,24.14-4.15,35.45-9.16a7.77,7.77,0,0,0,3.45-3.4c1-1.62,2.57-3,.88-5.15s-3.39-3-6-2.46c-1.25.28-2.5,1.38-3.89.37a6.36,6.36,0,0,1,4-2c4-.75,6.84,1,8.7,4.27,1.47,2.58-1.22,7.81-4.8,10.31-5.4,3.78-11.65,4.88-17.91,6.12-5.48,1.08-10.88,2.59-16.34,3.8-2,.45-2.33,1-1.55,3.13,2.23,6,5,12.08,1.79,18.67-1.79,3.7-10.07,9-13.4,8.55-11.11-1.6-15.57-4.57-16.78-11.94-.87-5.33,2.77-8.82,6.37-11.89a40.46,40.46,0,0,1,7.61-4.7c1.6-.84,2.17-1.68,1.39-3.39-1.73-3.77-3.32-7.6-5.09-11.34-.36-.77-1.3-2.5-2.15-.58-2.56,5.83-7.45,10-10.66,15.35a147.26,147.26,0,0,1-9.93,14.17c-4.21,5.46-11.77,5.9-17.09,4.4-3.82-1.08-5.52-4.71-5.65-8.35-.19-5.47-1.28-10.93-.45-16.44a6.8,6.8,0,0,0-.45-2.19,8.65,8.65,0,0,0-2.25,1.06c-6,5.55-11.91,11.19-17.91,16.73a22.15,22.15,0,0,1-4.21,3.05c-2,1.11-4.28,2.77-6.41,1-2.29-1.9-3.63-3.38-4.11-7.72A29.75,29.75,0,0,1,407,99c0-2,.66-6.38.8-9.17,0-.52.3-1.29-.47-1.45-.25,0-.69.54-1,.9a48,48,0,0,1-21.67,15.24c-4.32,1.5-8.62-.94-8.67-5.52-.14-11,1.51-21.62,9.77-29.92a15.89,15.89,0,0,1,22.16.13c1.27,1.31,1.36,2.93,1.46,4.56a1.48,1.48,0,0,1-.67,1.15c-.26.12-.91-.18-1.15-.48-8.85-11.07-12.29-6.52-17.39.38-4,5.43-5.22,12-5.1,18.66.09,4.85,3.51,6.25,8.11,3.52,5.62-3.34,9.95-8.14,14.36-12.84,1.94-2.07,1.46-4.94,2-7.41,1.45-6.72,4.69-12,10.86-15.19,2.05-1.07,4.5-1.64,6.3-.2,2,1.56.29,3.6-.62,5.2-6.51,11.51-11.05,23.54-10.35,37.07.05,1.06-.21,2.51.73,2.88.7.28,2.14-.36,2.8-1,4.08-4.21,9.47-6.94,13.06-11.75,2.43-3.26,6.08-5.27,9.29-7.71a3.91,3.91,0,0,0,1.61-3.18c.95-17.19,5.31-33.6,11.73-49.47C455,33.36,463,11,483.47,11.65Zm5.58,13.9a21.84,21.84,0,0,0-.3-3.73c-.63-2.45-1.6-5.13-4-6-2.58-.93-4.8,1-6.5,2.87a40.47,40.47,0,0,0-6.48,9.49c-5.71,11.75-8.27,24.61-13,36.7a14.36,14.36,0,0,0-.93,6.76,15,15,0,0,0,5.78-3.93,129.77,129.77,0,0,0,15.2-17.54C484.05,42.64,489,35.19,489.05,25.55Zm11.2,89.24c.05-4.29-2.6-8.7-4.13-13.42-.39-1.21-1.32-1-2.12-.55-3.72,2-7.61,3.74-10.27,7.24-2.87,3.77-2.78,7.25.28,10.69a13,13,0,0,0,13.52,3.33C500.66,120.92,500,118.09,500.25,114.79Zm-6.09-49.57a3.46,3.46,0,0,0-2.45-4.1c-.92-.33-1.43.91-1.2,1.8.57,2.26.19,5.08,2.5,6.33C493.49,69.51,493.88,66.65,494.16,65.22Z"/><path class="cls-1" d="M659,81.52a10.75,10.75,0,0,1,.69-5.5c.39-.8.84-1.89.09-2.41-.94-.67-1.83.3-2.38,1q-5,6.33-9.87,12.77c-1.15,1.52-2.63,2.63-4.41,1.87S641,86.84,641,84.9a48.35,48.35,0,0,0-.4-5.86c-1.86.7-2.3,2.66-3.51,3.94a30,30,0,0,1-9,6.61c-3.81,1.83-6.12.55-6.86-3.59-.35-2-.72-3.9-1.07-5.85-2,.76-3,2.57-4.43,4-1.83,1.84-3.38,4-5.3,5.7-4.55,4.1-7.56,3.27-9.65-2.46-.18-.5-.45-1-.67-1.45A5.64,5.64,0,0,0,599,87.09c-1.23,2.25-2.77,4-5.62,3.73-.9-.09-1.83-.43-1.88-1.48a2.89,2.89,0,0,1,.56-2.12c1-.78,1.11.56,1.65,1,1.19.87,1.73-.23,2.31-.92,3.85-4.54,5.52-10,6.85-15.69a7.49,7.49,0,0,1,8.3-5.57c2,.3,1.46,1.6.87,2.56a36.29,36.29,0,0,0-5.25,17.56c0,.72-1,1.63-.16,2a2.72,2.72,0,0,0,2.29-.81C614.4,81.53,622.78,78,622.86,68a26.17,26.17,0,0,1,2.48-11.2,1,1,0,0,0-.45-1.46c-4.56-2.07-9.1-4.31-14.35-3.2a6.36,6.36,0,0,0-3.75,3c-.36.52-.73,1.38-1.54.76s-.19-1.16.13-1.79c2.1-4.12,7.56-5.75,12.88-3.79.45.17.88.38,1.33.56,6.61,2.58,6.5,2.51,10.6-3.1,1.59-2.18,3-4.81,6.07-5.41,2.39-.47,3.74.1,2.67,2.87s-2,5.4-3.14,8c-.76,1.79-.41,2.38,1.6,2.36a16.49,16.49,0,0,0,8.48-2.53c3.36-2.06,8-2.81,9-7.75.14-.69,1.11-1.33,1.84-1.77,1.4-.86,2.81-1.16,4.16.3s1,2.74-.23,4-2.88,2.5.44,3.13c.73.13,1.33.67,1,1.44s-1.14.34-1.75.15a14.23,14.23,0,0,0-13.37,2,19,19,0,0,1-11.69,3.65,1.85,1.85,0,0,0-2.11,1.55c-1.65,7.33-4.13,14.48-4.88,22-.12,1.14-.46,2.59.47,3.28s1.88-.6,2.76-1.08c7.1-3.85,10.32-10.5,12.42-17.81,1.06-3.68,3-6.87,4.68-10.22A5,5,0,0,1,650,54.18c1.89-1.33,4.25-2.21,6.17-.92s-.13,3.1-.82,4.25A41.8,41.8,0,0,0,649.15,78c0,.8-.54,1.9.52,2.26.32.11,1.11-.88,1.56-1.46a63.56,63.56,0,0,1,9.93-10,3.55,3.55,0,0,1,4.05-.63c1.45.8,1.38,2.23,1.28,3.57-.25,3.36-.59,6.71-.84,10.07,0,.73-.4,1.66.44,2.12s1.1-.52,1.63-.86c5-3.19,9.76-6.72,15.58-8.4a9.11,9.11,0,0,1,6.7.61,1.34,1.34,0,0,1,.82,1.66c-.25.73-.87.65-1.44.4-5.29-2.39-9.3.55-13.29,3.28-2.54,1.74-4.8,3.88-7.34,5.62a8,8,0,0,1-7.71,1C658.65,86.21,658.71,83.52,659,81.52Z"/><path class="cls-1" d="M546.84,96.66c-.53-1.89.77-3.51,1.65-5C552,86,555.76,80.3,562,77a6,6,0,0,0,3.43-4.88,7.67,7.67,0,0,1,4.45-6c2.7-1.23,4.43-4,7.63-4.45,2.65-.34,4.35,1.42,3.57,4a12.72,12.72,0,0,1-5.33,6.62c-2.6,1.83-4.15,10-2.45,12.58.7,1.07,1.41.84,2.17.26,2.26-1.73,4.08-3.53,4-6.86,0-3.1.15-6.37,2.72-8.87a3.88,3.88,0,0,1,4.18-1.12c1.52.57,1.22,2.09,1.07,3.51-.38,3.73-2.37,7.18-1.94,11,.1.88-.59,2.27.52,2.52.78.17.86-1.31,1.18-2.09,2.85-6.83,5.13-13.91,9-20.3a13.37,13.37,0,0,1,4.87-4.84,1.43,1.43,0,0,1,2.07.3c.42.67-.17,1-.7,1.31-3.57,1.73-5.26,5-6.61,8.43-2.17,5.56-4.19,11.19-6.29,16.78a29.81,29.81,0,0,1-1.31,3.2c-1,1.88-2.31,3.52-4.67,3.23-2.13-.26-2.85-2.24-3.27-3.9-.67-2.67-1.24-3.38-3.36-.94s-5.29,2.74-7.88,2.24c-3.26-.63-4.49-3.65-4.19-7,.35-3.9-1.31-3.89-3.65-1.74-5.11,4.69-10.23,9.43-11.65,16.68-.64,3.26,1,4.94,4.2,5.12.68,0,1.57-.17,1.51.76s-1,.72-1.64.79C549.3,103.79,546.94,101.52,546.84,96.66Zm29.24-27.25A6,6,0,0,0,578.81,65c.08-.59-.45-1.27-1.09-1-2.23.89-1.68,3.26-2.44,4.94C575,69.49,575.54,69.52,576.08,69.41Z"/><path class="cls-1" d="M926.88,68.3a3.53,3.53,0,0,1-.76-1.87c-.16-2.8,4-8.59,6.69-9.22,1.2-.28,2.65-.34,3.35,1,.82,1.52,1.67,3.66.67,4.87A12.81,12.81,0,0,1,926.88,68.3Z"/><path class="cls-1" d="M614.56,57.55A3.63,3.63,0,0,1,611.4,61c-1.27.19-2-1.22-1.84-2.37.23-1.63.94-3.48,2.68-3.7C613.69,54.74,614.1,56.51,614.56,57.55Z"/></svg>